HIERARCHY
ROOT SimulationBone
{
	OFFSET 0.000000 0.000000 0.000000
	CHANNELS 6 Xposition Yposition Zposition Zrotation Yrotation Xrotation 
	JOINT Hips
	{
		OFFSET 0.000000 0.000000 0.000000
		CHANNELS 6 Xposition Yposition Zposition Zrotation Yrotation Xrotation 
		JOINT RightUpLeg
		{
			OFFSET 0.103454 1.857828 10.548502
			CHANNELS 3 Zrotation Yrotation Xrotation
			JOINT RightLeg
			{
				OFFSET 43.500000 -0.000023 -0.000008
				CHANNELS 3 Zrotation Yrotation Xrotation
				JOINT RightFoot
				{
					OFFSET 42.372192 0.000008 0.000008
					CHANNELS 3 Zrotation Yrotation Xrotation
					JOINT RightToe
					{
						OFFSET 17.299997 -0.000001 0.000000
						CHANNELS 3 Zrotation Yrotation Xrotation
						End Site
						{
							OFFSET 0.000000 0.000000 0.000000
						}
					}
				}
			}
		}
		JOINT LeftUpLeg
		{
			OFFSET 0.103459 1.857828 -10.548505
			CHANNELS 3 Zrotation Yrotation Xrotation
			JOINT LeftLeg
			{
				OFFSET 43.500046 -0.000027 0.000015
				CHANNELS 3 Zrotation Yrotation Xrotation
				JOINT LeftFoot
				{
					OFFSET 42.372261 -0.000008 0.000019
					CHANNELS 3 Zrotation Yrotation Xrotation
					JOINT LeftToe
					{
						OFFSET 17.299992 -0.000006 -0.000002
						CHANNELS 3 Zrotation Yrotation Xrotation
						End Site
						{
							OFFSET 0.000000 0.000000 0.000000
						}
					}
				}
			}
		}
		JOINT Spine
		{
			OFFSET 6.901967 -2.603729 0.000006
			CHANNELS 3 Zrotation Yrotation Xrotation
			JOINT Spine1
			{
				OFFSET 12.588098 -0.000001 -0.000005
				CHANNELS 3 Zrotation Yrotation Xrotation
				JOINT Spine2
				{
					OFFSET 12.343207 0.000001 -0.000003
					CHANNELS 3 Zrotation Yrotation Xrotation
					JOINT Neck
					{
						OFFSET 25.832897 -0.000006 -0.000001
						CHANNELS 3 Zrotation Yrotation Xrotation
						JOINT Head
						{
							OFFSET 11.766602 0.000010 0.000005
							CHANNELS 3 Zrotation Yrotation Xrotation
							End Site
							{
								OFFSET 0.000000 0.000000 0.000000
							}
						}
					}
					JOINT RightShoulder
					{
						OFFSET 19.745901 -1.480368 6.000114
						CHANNELS 3 Zrotation Yrotation Xrotation
						JOINT RightArm
						{
							OFFSET 11.284125 -0.000009 -0.000026
							CHANNELS 3 Zrotation Yrotation Xrotation
							JOINT RightForeArm
							{
								OFFSET 33.000046 0.000005 0.000037
								CHANNELS 3 Zrotation Yrotation Xrotation
								JOINT RightHand
								{
									OFFSET 25.200003 0.000016 -0.000001
									CHANNELS 3 Zrotation Yrotation Xrotation
									End Site
									{
										OFFSET 0.000000 0.000000 0.000000
									}
								}
							}
						}
					}
					JOINT LeftShoulder
					{
						OFFSET 19.746088 -1.480377 -6.000074
						CHANNELS 3 Zrotation Yrotation Xrotation
						JOINT LeftArm
						{
							OFFSET 11.284132 -0.000015 -0.000021
							CHANNELS 3 Zrotation Yrotation Xrotation
							JOINT LeftForeArm
							{
								OFFSET 33.000107 0.000015 0.000018
								CHANNELS 3 Zrotation Yrotation Xrotation
								JOINT LeftHand
								{
									OFFSET 25.199774 0.000138 0.000420
									CHANNELS 3 Zrotation Yrotation Xrotation
									End Site
									{
										OFFSET 0.000000 0.000000 0.000000
									}
								}
							}
						}
					}
				}
			}
		}
	}
}
MOTION
Frames: 5
Frame Time: 0.033333
-38.738309 0.000000 -69.522026 0.000000 61.625420 0.000000 -5.762981 89.934563 -2.241978 84.329356 -2.219602 179.568166 161.100052 -4.520299 167.017851 -25.757200 3.013869 -5.581350 85.850478 1.910060 -9.865211 21.454558 0.003105 0.000018 145.309297 22.189302 -164.923196 -55.792048 -0.748892 4.012498 73.024913 -0.203356 8.397952 21.454553 -0.003086 -0.000001 8.208765 -0.026591 -0.061533 6.404704 -0.049677 -0.124431 6.086615 -0.050571 -0.124142 21.338119 -3.769697 -0.517428 -9.580101 5.688003 -2.316798 169.080390 -78.186521 9.663509 12.121833 60.995666 27.837471 -43.653330 -12.898078 1.447992 4.378856 -5.007793 10.317647 -168.761024 83.718496 12.938459 -5.442090 -64.625925 -33.365699 -40.613309 23.071491 -2.002576 7.980435 2.986214 -1.873868 
-37.557978 0.000000 -68.928876 0.000000 63.917845 0.000000 -5.552940 89.851646 -2.045583 84.417024 -2.024182 179.371829 160.945362 -5.589003 168.354573 -25.420081 2.940641 -4.917723 85.289235 1.233382 -10.747525 21.454558 0.003118 0.000018 147.937758 20.663308 -168.184078 -46.572273 -1.933962 1.921530 73.150636 1.297873 8.353493 21.454555 -0.003091 0.000001 8.219078 -0.023949 -0.036097 6.425327 -0.045822 -0.073461 6.107232 -0.046393 -0.073188 21.233001 -4.048928 -0.842227 -9.872323 6.253806 -2.855533 170.125614 -78.235193 8.597980 12.795131 60.512464 28.290652 -44.753360 -13.004769 1.486681 4.171230 -5.493229 9.866152 -169.638827 83.733208 12.051802 -5.867157 -65.768274 -34.555635 -39.830047 22.866947 -1.967480 8.424183 2.102853 -1.227015 
-36.300063 0.000000 -68.329741 0.000000 66.130648 0.000000 -5.210966 89.549141 -1.802220 84.651190 -2.292208 179.673999 160.649765 -6.306793 169.841779 -25.607988 2.688674 -4.106297 85.027632 0.490469 -11.543249 21.454558 0.003109 0.000018 151.275508 19.363998 -175.329945 -37.481196 -1.470922 -0.434201 73.990326 2.992880 8.662066 21.454551 -0.003083 -0.000002 8.223059 -0.127374 -0.067852 6.433438 -0.250735 -0.142663 6.115337 -0.251731 -0.141150 21.284775 -4.389541 -1.235510 -10.128739 7.011701 -3.521777 171.087100 -78.274569 7.618006 13.079258 59.596945 28.798499 -45.780217 -12.998593 1.516479 3.883630 -5.499867 9.377769 -169.766223 83.575629 11.922694 -5.816325 -66.757313 -35.808127 -39.100279 22.558382 -1.927475 8.716974 1.453709 -1.549326 
-34.992494 0.000000 -67.718679 0.000000 68.260844 0.000000 -4.818265 89.213333 -1.563354 85.005999 -2.490307 -179.426187 160.219654 -7.076603 171.506897 -25.990606 2.273177 -3.023456 84.846488 -0.396602 -12.158313 21.454558 0.003113 0.000017 154.675631 18.537291 173.851810 -31.034044 0.665696 -0.217742 75.000982 3.390558 10.950889 21.454550 -0.003093 0.000000 8.228838 -0.215972 -0.116506 6.445331 -0.425103 -0.244804 6.127226 -0.426700 -0.242238 21.517676 -4.715274 -1.734487 -10.332349 7.837961 -4.313059 171.327031 -78.336594 7.371782 12.854022 58.672752 28.508626 -46.636166 -12.987370 1.541401 3.698025 -4.997012 9.339070 -168.124546 83.326969 13.581447 -5.579603 -67.700616 -36.974628 -38.258960 21.961184 -1.866134 8.905652 1.261069 -1.363025 
-33.656391 0.000000 -67.090631 0.000000 70.305014 0.000000 -4.517988 88.565178 -1.177651 85.525774 -2.808027 -177.951978 159.064915 -7.778119 173.275397 -27.527187 1.899663 -1.678373 84.983153 -1.410689 -12.627334 21.454558 0.003111 0.000018 158.414285 17.841801 167.108228 -28.882466 2.459815 4.652901 80.571029 0.347118 15.112903 21.454555 -0.003080 0.000001 8.288762 -0.285053 -0.195539 6.565708 -0.558568 -0.406870 6.247609 -0.561143 -0.403497 21.712700 -4.985498 -2.302593 -10.383962 8.472593 -5.109396 171.325924 -78.254140 7.375506 12.141444 58.039041 27.054642 -47.293569 -13.152874 1.572372 3.601128 -4.506385 9.708013 -164.979599 83.012726 16.762235 -5.672694 -68.298641 -38.037617 -37.242945 21.045286 -1.780356 9.069841 1.873853 0.708954 
